<?xml version="1.0" encoding="UTF-8" standalone="no"?>
<svg width="60px" height="60px" viewBox="0 0 60 60" version="1.1" xmlns="http://www.w3.org/2000/svg" xmlns:xlink="http://www.w3.org/1999/xlink" xmlns:sketch="http://www.bohemiancoding.com/sketch/ns">
    <!-- Generator: Sketch 3.2.2 (9983) - http://www.bohemiancoding.com/sketch -->
    <title>Heartbeat</title>
    <desc>Created with Sketch.</desc>
    <defs></defs>
    <g id="stroked" stroke="none" stroke-width="1" fill="none" fill-rule="evenodd" sketch:type="MSPage">
        <g id="Medical" sketch:type="MSLayerGroup" transform="translate(-140.000000, 3.000000)" stroke-linecap="round" stroke="#535353" stroke-width="2">
            <g id="Heartbeat" transform="translate(144.000000, 8.000000)" sketch:type="MSShapeGroup">
                <path d="M5,17 C3,10.372583 10.372583,3 17,3 C21.1739415,3 24.8501569,5.13101867 27,8.36440975 C29.1498431,5.13101867 32.8260585,3 37,3 C43.627417,3 51,10.372583 49,17 C47,23.627417 27,38.6355902 27,38.6355902 C27,38.6355902 7,23.627417 5,17 Z" id="Oval-230"></path>
                <path d="M0.60163706,26.915505 L6.5625256,26.915505 L13.3713541,15.7872369 L17.5224148,22.9726691 L22.732231,10.4808649 L28.6834279,31.1547253 L33.9981961,15.4203248 L38.3079441,23.8324357 L53.3983629,23.8324357" id="Path-423" stroke-linejoin="round"></path>
                <path d="M52.6453243,8.5468543 C50.9933328,4.80313893 47.9479746,1.81229313 44.1664388,0.231505966" id="Oval-230"></path>
            </g>
        </g>
    </g>
</svg>