<?xml version="1.0" encoding="iso-8859-1"?>
<!DOCTYPE svg PUBLIC "-//W3C//DTD SVG 1.1//EN" "http://www.w3.org/Graphics/SVG/1.1/DTD/svg11.dtd">
<svg 
 version="1.1" xmlns="http://www.w3.org/2000/svg" xmlns:xlink="http://www.w3.org/1999/xlink" x="0px" y="0px" width="512px"
	 height="512px" viewBox="0 0 512 512" style="enable-background:new 0 0 512 512;" xml:space="preserve"
><g id="afcae5a789ccd549f9c6e2a2f8134089"><g></g><path style="display: inline; fill: #13110C;" d="M481.701,234.111L426.833,96.938h-21.291h-25.551v21.292h34.067l37.618,94.049
		c-14.23-6.957-30.221-10.875-47.129-10.875c-50.934,0-93.559,35.447-104.629,83.008c-11.386-10.612-26.618-17.142-43.419-17.142
		c-16.8,0-32.033,6.529-43.419,17.142c-11.07-47.561-53.695-83.008-104.625-83.008c-19.088,0-36.999,4.999-52.531,13.723
		l38.758-96.898h34.066V96.938H103.2H81.908l-58.523,146.31C9.363,261.399,1,284.146,1,308.856
		c0,59.346,48.11,107.456,107.457,107.456c59.342,0,107.452-48.11,107.452-107.456c0-0.624-0.038-1.244-0.046-1.863
		c8.446-11.111,26.132-18.431,40.637-18.431s32.191,7.319,40.637,18.431c-0.008,0.619-0.045,1.239-0.045,1.863
		c0,59.346,48.109,107.456,107.456,107.456c59.342,0,107.452-48.11,107.452-107.456C512,279.796,500.443,253.452,481.701,234.111z
		 M108.457,395.021c-47.511,0-86.165-38.653-86.165-86.164c0-47.508,38.654-86.161,86.165-86.161
		c47.507,0,86.161,38.653,86.161,86.161C194.617,356.367,155.963,395.021,108.457,395.021z M404.548,395.021
		c-47.512,0-86.165-38.653-86.165-86.164c0-47.508,38.653-86.161,86.165-86.161c47.507,0,86.16,38.653,86.16,86.161
		C490.708,356.367,452.055,395.021,404.548,395.021z"></path></g></svg>