<?xml version="1.0" encoding="iso-8859-1"?>
<!DOCTYPE svg PUBLIC "-//W3C//DTD SVG 1.1//EN" "http://www.w3.org/Graphics/SVG/1.1/DTD/svg11.dtd">
<svg 
 version="1.1" xmlns="http://www.w3.org/2000/svg" xmlns:xlink="http://www.w3.org/1999/xlink" x="0px" y="0px" width="512px"
	 height="512px" viewBox="0 0 512 512" style="enable-background:new 0 0 512 512;" xml:space="preserve"
><g id="afcae5a789ccd549f9c6e2a2f80b0a67"><g></g><path style="display: inline;" d="M240.032,124.406c0,58.143-45.28,105.275-101.137,105.275
		c-55.855,0-101.135-47.132-101.135-105.275c0-58.141,45.279-105.275,101.135-105.275
		C194.752,19.131,240.032,66.265,240.032,124.406z M345.591,104.297c-45.81,0-82.95,38.662-82.95,86.35
		c0,47.69,37.141,86.348,82.95,86.348c45.818,0,82.959-38.658,82.959-86.348C428.55,142.959,391.409,104.297,345.591,104.297z
		 M138.896,253.804c-53.553,0-102.21,15.94-138.396,41.914v197.151h340.667v-84.438
		C341.167,323.034,250.606,253.804,138.896,253.804z M345.591,296.783c-10.853,0-21.449,0.821-31.722,2.341
		c30.375,30.044,48.589,68.022,48.589,109.307v84.438H511.5v-69.258C511.5,353.565,437.22,296.783,345.591,296.783z"></path></g></svg>