<?xml version="1.0" encoding="iso-8859-1"?>
<!DOCTYPE svg PUBLIC "-//W3C//DTD SVG 1.1//EN" "http://www.w3.org/Graphics/SVG/1.1/DTD/svg11.dtd">
<svg 
 version="1.1" xmlns="http://www.w3.org/2000/svg" xmlns:xlink="http://www.w3.org/1999/xlink" x="0px" y="0px" width="512px"
	 height="512px" viewBox="0 0 512 512" enable-background="new 0 0 512 512" xml:space="preserve"
><g id="1b1c9b208ed950244c86edd4d2039e29"><g></g><path display="inline" fill-rule="evenodd" clip-rule="evenodd" d="M509.712,278.931v84.571
		c0,81.605-66.394,147.998-147.999,147.998H150.287c-81.606,0-147.999-66.393-147.999-147.998v-84.571
		c0-23.257,19.028-42.285,42.285-42.285s42.285,19.028,42.285,42.285v84.571c0,34.885,28.543,63.428,63.429,63.428h211.426
		c34.886,0,63.428-28.543,63.428-63.428v-84.571c0-23.257,19.028-42.285,42.285-42.285
		C490.684,236.646,509.712,255.674,509.712,278.931z M108.001,173.218h52.857v52.857c0,23.257,19.028,42.285,42.285,42.285h105.713
		c23.257,0,42.285-19.028,42.285-42.285v-52.857h52.856c23.257,0,28.832-13.454,12.385-29.901L285.901,12.835
		c-16.447-16.447-43.357-16.447-59.803,0L95.617,143.317C79.172,159.764,84.744,173.218,108.001,173.218z"></path></g></svg>